<svg width="24" height="27" viewBox="0 0 24 27" fill="none" xmlns="http://www.w3.org/2000/svg">
    <path
        d="M2.75578 22.9262C2.60813 22.8696 2.48004 22.7632 2.38937 22.6217C2.2987 22.4803 2.24998 22.3109 2.25 22.1371C2.25 18.3247 2.93813 15.2759 4.29609 13.0745C5.93672 10.4147 8.52469 8.98254 12 8.8047V4.61367C12 4.45028 12.0431 4.29048 12.124 4.15411C12.2049 4.01774 12.32 3.91079 12.4551 3.84653C12.5901 3.78227 12.7391 3.76354 12.8836 3.79264C13.0281 3.82175 13.1618 3.89742 13.268 4.01026L21.518 12.772C21.5913 12.8499 21.6496 12.9435 21.6895 13.0473C21.7294 13.151 21.7499 13.2626 21.7499 13.3754C21.7499 13.4882 21.7294 13.5998 21.6895 13.7035C21.6496 13.8073 21.5913 13.9009 21.518 13.9788L13.268 22.7405C13.1618 22.8534 13.0281 22.9291 12.8836 22.9582C12.7391 22.9873 12.5901 22.9685 12.4551 22.9043C12.32 22.84 12.2049 22.7331 12.124 22.5967C12.0431 22.4603 12 22.3005 12 22.1371V17.9769C9.89062 18.0478 8.29687 18.428 7.02797 19.1576C5.65687 19.9462 4.66266 21.1243 3.59109 22.6519C3.49496 22.7888 3.3628 22.889 3.21306 22.9383C3.06331 22.9877 2.90345 22.9838 2.75578 22.9272V22.9262Z"
        fill="black" />
</svg>