<svg width="24" height="28" viewBox="0 0 24 28" fill="none" xmlns="http://www.w3.org/2000/svg">
    <path
        d="M1.503 8.37409C1.54107 7.40753 1.91297 6.49463 2.54119 5.82568C3.1694 5.15674 4.00543 4.78338 4.875 4.78345H19.125C19.9946 4.78338 20.8306 5.15674 21.4588 5.82568C22.087 6.49463 22.4589 7.40753 22.497 8.37409L21.39 9.05834L12 14.6834L2.61 9.05834L1.503 8.37409ZM1.5 10.2808V19.3863C1.5 20.3822 1.85558 21.3373 2.48851 22.0415C3.12145 22.7457 3.97989 23.1414 4.875 23.1414H19.125C20.0201 23.1414 20.8785 22.7457 21.5115 22.0415C22.1444 21.3373 22.5 20.3822 22.5 19.3863V10.2808L22.1055 10.5253L12.3555 16.3665C12.2462 16.4319 12.1241 16.4661 12 16.4661C11.8759 16.4661 11.7538 16.4319 11.6445 16.3665L1.8855 10.5195L1.5 10.2808Z"
        fill="black" />
</svg>