<svg width="24" height="28" viewBox="0 0 24 28" fill="none" xmlns="http://www.w3.org/2000/svg">
    <path
        d="M12 18.7801C13.0609 18.7801 14.0783 18.3112 14.8284 17.4766C15.5786 16.642 16 15.51 16 14.3297C16 13.1494 15.5786 12.0174 14.8284 11.1828C14.0783 10.3482 13.0609 9.87927 12 9.87927C10.9391 9.87927 9.92172 10.3482 9.17157 11.1828C8.42143 12.0174 8 13.1494 8 14.3297C8 15.51 8.42143 16.642 9.17157 17.4766C9.92172 18.3112 10.9391 18.7801 12 18.7801Z"
        stroke="black" stroke-width="1.5" stroke-linecap="round" stroke-linejoin="round" />
    <path
        d="M3 18.7801V9.87929C3 8.40389 3.52678 6.98892 4.46447 5.94565C5.40215 4.90238 6.67392 4.31628 8 4.31628H16C17.3261 4.31628 18.5979 4.90238 19.5355 5.94565C20.4732 6.98892 21 8.40389 21 9.87929V18.7801C21 20.2555 20.4732 21.6705 19.5355 22.7137C18.5979 23.757 17.3261 24.3431 16 24.3431H8C6.67392 24.3431 5.40215 23.757 4.46447 22.7137C3.52678 21.6705 3 20.2555 3 18.7801Z"
        stroke="black" stroke-width="1.5" />
    <path d="M17.5 8.22123L17.51 8.20923" stroke="black" stroke-width="1.5" stroke-linecap="round"
        stroke-linejoin="round" />
</svg>