<svg width="24" height="28" viewBox="0 0 24 28" fill="none" xmlns="http://www.w3.org/2000/svg">
    <path
        d="M12 13.5938C11.337 13.5938 10.7011 13.3007 10.2322 12.7791C9.76339 12.2574 9.5 11.55 9.5 10.8123C9.5 10.0746 9.76339 9.36707 10.2322 8.84543C10.7011 8.3238 11.337 8.03075 12 8.03075C12.663 8.03075 13.2989 8.3238 13.7678 8.84543C14.2366 9.36707 14.5 10.0746 14.5 10.8123C14.5 11.1775 14.4353 11.5392 14.3097 11.8767C14.1841 12.2142 13.9999 12.5208 13.7678 12.7791C13.5356 13.0374 13.26 13.2422 12.9567 13.382C12.6534 13.5218 12.3283 13.5938 12 13.5938ZM12 3.02405C10.1435 3.02405 8.36301 3.84459 7.05025 5.30516C5.7375 6.76573 5 8.74669 5 10.8123C5 16.6534 12 25.2761 12 25.2761C12 25.2761 19 16.6534 19 10.8123C19 8.74669 18.2625 6.76573 16.9497 5.30516C15.637 3.84459 13.8565 3.02405 12 3.02405Z"
        fill="black" />
</svg>