<svg width="24" height="28" viewBox="0 0 24 28" fill="none" xmlns="http://www.w3.org/2000/svg">
    <path
        d="M22.46 7.65416C21.69 8.04357 20.86 8.29946 20 8.42185C20.88 7.83217 21.56 6.89759 21.88 5.77386C21.05 6.33016 20.13 6.71957 19.16 6.94209C18.37 5.98526 17.26 5.42896 16 5.42896C13.65 5.42896 11.73 7.56515 11.73 10.202C11.73 10.5803 11.77 10.9475 11.84 11.2924C8.28004 11.0921 5.11004 9.18954 3.00004 6.30791C2.63004 7.00885 2.42004 7.83217 2.42004 8.7C2.42004 10.3578 3.17004 11.8264 4.33004 12.6609C3.62004 12.6609 2.96004 12.4383 2.38004 12.1046V12.1379C2.38004 14.4521 3.86004 16.3881 5.82004 16.822C5.19077 17.0136 4.53013 17.0402 3.89004 16.8999C4.16165 17.8483 4.69358 18.6783 5.41106 19.273C6.12854 19.8677 6.99549 20.1973 7.89004 20.2154C6.37367 21.551 4.49404 22.273 2.56004 22.2626C2.22004 22.2626 1.88004 22.2403 1.54004 22.1958C3.44004 23.5532 5.70004 24.3432 8.12004 24.3432C16 24.3432 20.33 17.0668 20.33 10.7583C20.33 10.5469 20.33 10.3466 20.32 10.1353C21.16 9.46769 21.88 8.62212 22.46 7.65416Z"
        fill="black" />
</svg>