<svg width="24" height="24" viewBox="0 0 24 24" fill="none" xmlns="http://www.w3.org/2000/svg">
    <path
        d="M7.308 21.115C6.886 21.115 6.53033 20.9707 6.241 20.682C5.95233 20.3927 5.808 20.037 5.808 19.615C5.808 19.1937 5.95233 18.8383 6.241 18.549C6.53033 18.2597 6.886 18.115 7.308 18.115C7.72933 18.115 8.08467 18.2597 8.374 18.549C8.66333 18.8383 8.808 19.1937 8.808 19.615C8.808 20.037 8.66333 20.3927 8.374 20.682C8.08467 20.9707 7.72933 21.115 7.308 21.115ZM16.692 21.115C16.2707 21.115 15.9153 20.9707 15.626 20.682C15.3367 20.3927 15.192 20.037 15.192 19.615C15.192 19.1937 15.3367 18.8383 15.626 18.549C15.9153 18.2597 16.2707 18.115 16.692 18.115C17.114 18.115 17.4697 18.2597 17.759 18.549C18.0477 18.8383 18.192 19.1937 18.192 19.615C18.192 20.037 18.0477 20.3927 17.759 20.682C17.4697 20.9707 17.114 21.115 16.692 21.115ZM5.881 5.5L8.55 11.115H15.185C15.3003 11.115 15.4027 11.0863 15.492 11.029C15.582 10.971 15.659 10.891 15.723 10.789L18.338 6.039C18.4153 5.89767 18.422 5.77233 18.358 5.663C18.294 5.55433 18.185 5.5 18.031 5.5H5.881ZM5.392 4.5H18.412C18.846 4.5 19.1727 4.67733 19.392 5.032C19.612 5.386 19.6237 5.751 19.427 6.127L16.569 11.335C16.4243 11.5783 16.2363 11.7693 16.005 11.908C15.7737 12.046 15.5193 12.115 15.242 12.115H8.1L6.885 14.346C6.78233 14.4993 6.779 14.666 6.875 14.846C6.971 15.026 7.11533 15.116 7.308 15.116H18.192V16.116H7.308C6.72467 16.116 6.28933 15.87 6.002 15.378C5.71533 14.886 5.70833 14.392 5.981 13.896L7.485 11.216L3.808 3.5H2V2.5H4.442L5.392 4.5Z"
        fill="black" />
</svg>