<svg width="16" height="16" viewBox="0 0 16 16" fill="none" xmlns="http://www.w3.org/2000/svg">
    <g opacity="0.3">
        <path
            d="M12.0365 11.078L14.7769 13.9327L13.8715 14.876L11.1318 12.0207C10.1123 12.8722 8.84436 13.3353 7.53781 13.3333C4.35911 13.3333 1.7793 10.6453 1.7793 7.33334C1.7793 4.02134 4.35911 1.33334 7.53781 1.33334C10.7165 1.33334 13.2963 4.02134 13.2963 7.33334C13.2982 8.69467 12.8537 10.0158 12.0365 11.078ZM10.753 10.5833C11.565 9.71326 12.0185 8.54696 12.0167 7.33334C12.0167 4.75467 10.0121 2.66667 7.53781 2.66667C5.06293 2.66667 3.05897 4.75467 3.05897 7.33334C3.05897 9.91134 5.06293 12 7.53781 12C8.70259 12.0019 9.82195 11.5294 10.657 10.6833L10.753 10.5833Z"
            fill="black" />
    </g>
</svg>