<svg width="27" height="26" viewBox="0 0 27 26" fill="none" xmlns="http://www.w3.org/2000/svg">
    <path
        d="M23.0007 2.16669H6.56553C5.98435 2.16669 5.42697 2.39496 5.01601 2.80129C4.60505 3.20762 4.37417 3.75872 4.37417 4.33335V7.58335H2.18282V9.75002H4.37417V11.9167H2.18282V14.0834H4.37417V16.25H2.18282V18.4167H4.37417V21.6667C4.37417 22.2413 4.60505 22.7924 5.01601 23.1987C5.42697 23.6051 5.98435 23.8334 6.56553 23.8334H23.0007C23.2913 23.8334 23.57 23.7192 23.7755 23.5161C23.981 23.3129 24.0964 23.0373 24.0964 22.75V3.25002C24.0964 2.9627 23.981 2.68715 23.7755 2.48399C23.57 2.28082 23.2913 2.16669 23.0007 2.16669ZM14.2353 5.4156C16.041 5.4156 17.5223 6.87919 17.5223 8.6656C17.5191 9.52669 17.1719 10.3516 16.5561 10.9606C15.9404 11.5696 15.1062 11.9133 14.2353 11.9167C12.4307 11.9167 10.9482 10.4509 10.9482 8.6656C10.9482 6.87919 12.4307 5.4156 14.2353 5.4156ZM20.8094 19.5H7.66121V18.6875C7.66121 16.2836 10.625 13.8125 14.2353 13.8125C17.8455 13.8125 20.8094 16.2836 20.8094 18.6875V19.5Z"
        fill="#555" />
</svg>