<svg width="34" height="32" viewBox="0 0 34 32" fill="none" xmlns="http://www.w3.org/2000/svg">
    <path
        d="M31.3046 11.75C31.3046 20.5 18.1501 27.5825 17.5899 27.875C17.4423 27.9533 17.2772 27.9943 17.1096 27.9943C16.9419 27.9943 16.7769 27.9533 16.6292 27.875C16.069 27.5825 2.91454 20.5 2.91454 11.75C2.91688 9.69528 3.74553 7.72539 5.21867 6.27248C6.69182 4.81958 8.68916 4.00232 10.7725 4C13.3897 4 15.6812 5.11 17.1096 6.98625C18.5379 5.11 20.8294 4 23.4466 4C25.53 4.00232 27.5273 4.81958 29.0005 6.27248C30.4736 7.72539 31.3022 9.69528 31.3046 11.75Z"
        fill="#555" />
</svg>