<svg width="28" height="27" viewBox="0 0 28 27" fill="none" xmlns="http://www.w3.org/2000/svg">
    <path
        d="M13.5718 3.33502C13.5718 3.33502 6.61666 9.27132 2.72983 12.4863C2.60615 12.5928 2.50651 12.7239 2.43736 12.871C2.36821 13.018 2.3311 13.1778 2.32845 13.34C2.32845 13.6349 2.4469 13.9176 2.65776 14.1261C2.86861 14.3346 3.15459 14.4517 3.45278 14.4517H5.70145V22.2334C5.70145 22.5282 5.81991 22.8109 6.03076 23.0194C6.24162 23.2279 6.52759 23.345 6.82579 23.345H10.1988C10.497 23.345 10.783 23.2279 10.9938 23.0194C11.2047 22.8109 11.3231 22.5282 11.3231 22.2334V17.7867H15.8205V22.2334C15.8205 22.5282 15.9389 22.8109 16.1498 23.0194C16.3606 23.2279 16.6466 23.345 16.9448 23.345H20.3178C20.616 23.345 20.902 23.2279 21.1128 23.0194C21.3237 22.8109 21.4421 22.5282 21.4421 22.2334V14.4517H23.6908C23.989 14.4517 24.275 14.3346 24.4858 14.1261C24.6967 13.9176 24.8151 13.6349 24.8151 13.34C24.8136 13.1747 24.774 13.012 24.6994 12.8641C24.6248 12.7161 24.5171 12.5869 24.3845 12.4863C20.5247 9.27132 13.5718 3.33502 13.5718 3.33502Z"
        fill="#555" />
</svg>