<svg width="28" height="27" viewBox="0 0 28 27" fill="none" xmlns="http://www.w3.org/2000/svg">
    <ellipse cx="14.1602" cy="13.335" rx="13.4907" ry="13.335" fill="#555" />
    <path
        d="M24.8371 19.6875C23.4825 17.4316 21.3674 15.6738 18.8322 14.6972C20.093 13.7999 21.0242 12.549 21.4941 11.1216C21.964 9.69424 21.9487 8.16274 21.4503 6.74407C20.952 5.3254 19.9959 4.09148 18.7174 3.21709C17.439 2.34271 15.903 1.87219 14.3271 1.87219C12.7512 1.87219 11.2152 2.34271 9.93681 3.21709C8.65836 4.09148 7.70225 5.3254 7.20391 6.74407C6.70556 8.16274 6.69025 9.69424 7.16013 11.1216C7.63001 12.549 8.56128 13.7999 9.822 14.6972C7.28681 15.6738 5.1717 17.4316 3.81716 19.6875C3.73323 19.8156 3.67729 19.9583 3.65267 20.1073C3.62804 20.2563 3.63524 20.4085 3.67383 20.5548C3.71242 20.7011 3.78161 20.8385 3.8773 20.9589C3.97298 21.0794 4.0932 21.1803 4.23082 21.2557C4.36843 21.3312 4.52062 21.3796 4.67835 21.3981C4.83608 21.4166 4.99612 21.4049 5.14896 21.3635C5.30179 21.3222 5.44431 21.2521 5.56804 21.1574C5.69176 21.0628 5.79416 20.9455 5.86916 20.8125C7.65935 17.8763 10.8208 16.125 14.3271 16.125C17.8334 16.125 20.9949 17.8772 22.7851 20.8125C22.9476 21.0605 23.2054 21.2388 23.504 21.3097C23.8025 21.3806 24.1184 21.3386 24.3849 21.1925C24.6514 21.0464 24.8476 20.8077 24.9319 20.5268C25.0163 20.246 24.9823 19.945 24.8371 19.6875ZM9.18971 9C9.18971 8.03582 9.49101 7.09329 10.0555 6.2916C10.62 5.48991 11.4224 4.86507 12.3611 4.49609C13.2999 4.12712 14.3328 4.03057 15.3294 4.21868C16.3259 4.40678 17.2413 4.87108 17.9598 5.55286C18.6783 6.23464 19.1676 7.10328 19.3658 8.04894C19.564 8.9946 19.4623 9.9748 19.0735 10.8656C18.6846 11.7564 18.0261 12.5177 17.1813 13.0534C16.3365 13.5891 15.3432 13.875 14.3271 13.875C12.9651 13.8735 11.6593 13.3594 10.6962 12.4455C9.73304 11.5316 9.19128 10.2925 9.18971 9Z"
        fill="white" />
</svg>