<svg width="34" height="32" viewBox="0 0 34 32" fill="none" xmlns="http://www.w3.org/2000/svg">
    <path
        d="M23.7347 4.45333C25.7692 5.61447 27.4616 7.2807 28.6444 9.28707C29.8273 11.2934 30.4594 13.5704 30.4784 15.8925C30.4974 18.2145 29.9025 20.5013 28.7526 22.5263C27.6028 24.5513 25.9378 26.2443 23.9225 27.4378C21.9073 28.6312 19.6116 29.2838 17.2628 29.3308C14.914 29.3777 12.5935 28.8176 10.5311 27.7057C8.46862 26.5938 6.7357 24.9687 5.50388 22.9914C4.27206 21.014 3.58405 18.7529 3.50796 16.432L3.50122 16L3.50796 15.568C3.5835 13.2653 4.26139 11.0213 5.47552 9.05466C6.68965 7.08803 8.3986 5.46594 10.4358 4.34651C12.4729 3.22708 14.7688 2.64853 17.0995 2.66725C19.4302 2.68597 21.7162 3.30133 23.7347 4.45333ZM16.9902 8C16.6598 8.00004 16.3409 8.11994 16.094 8.33695C15.8471 8.55397 15.6894 8.853 15.6507 9.17733L15.6413 9.33333V16L15.6534 16.1747C15.6842 16.406 15.7758 16.6253 15.9192 16.8107L16.0365 16.944L20.0832 20.944L20.21 21.0533C20.4466 21.2348 20.7375 21.3332 21.0369 21.3332C21.3363 21.3332 21.6272 21.2348 21.8638 21.0533L21.9906 20.9427L22.1025 20.8173C22.2861 20.5835 22.3857 20.296 22.3857 20C22.3857 19.704 22.2861 19.4165 22.1025 19.1827L21.9906 19.0573L18.3391 15.4467V9.33333L18.3297 9.17733C18.291 8.853 18.1333 8.55397 17.8864 8.33695C17.6395 8.11994 17.3206 8.00004 16.9902 8Z"
        fill="#555" />
</svg>